<?xml version="1.0" encoding="UTF-8" standalone="no"?>
<!-- Created with Inkscape (http://www.inkscape.org/) -->

<svg
   xmlns:dc="http://purl.org/dc/elements/1.1/"
   xmlns:cc="http://creativecommons.org/ns#"
   xmlns:rdf="http://www.w3.org/1999/02/22-rdf-syntax-ns#"
   xmlns:svg="http://www.w3.org/2000/svg"
   xmlns="http://www.w3.org/2000/svg"
   xmlns:sodipodi="http://sodipodi.sourceforge.net/DTD/sodipodi-0.dtd"
   xmlns:inkscape="http://www.inkscape.org/namespaces/inkscape"
   id="svg2"
   version="1.1"
   inkscape:version="0.91 r13725"
   width="269.75143"
   height="270.15231"
   xml:space="preserve"
   sodipodi:docname="KM.svg"><metadata
     id="metadata8"><rdf:RDF><cc:Work
         rdf:about=""><dc:format>image/svg+xml</dc:format><dc:type
           rdf:resource="http://purl.org/dc/dcmitype/StillImage" /><dc:title></dc:title></cc:Work></rdf:RDF></metadata><defs
     id="defs6"><clipPath
       clipPathUnits="userSpaceOnUse"
       id="clipPath18"><path
         d="M 0,792 612,792 612,0 0,0 0,792 z"
         id="path20"
         inkscape:connector-curvature="0" /></clipPath></defs><sodipodi:namedview
     pagecolor="#ffffff"
     bordercolor="#666666"
     borderopacity="1"
     objecttolerance="10"
     gridtolerance="10"
     guidetolerance="10"
     inkscape:pageopacity="0"
     inkscape:pageshadow="2"
     inkscape:window-width="1280"
     inkscape:window-height="771"
     id="namedview4"
     showgrid="false"
     inkscape:zoom="1.9070707"
     inkscape:cx="156.23089"
     inkscape:cy="135.81244"
     inkscape:window-x="0"
     inkscape:window-y="0"
     inkscape:window-maximized="1"
     inkscape:current-layer="layer1"
     fit-margin-top="0"
     fit-margin-left="0"
     fit-margin-right="0"
     fit-margin-bottom="0" /><g
     inkscape:groupmode="layer"
     id="layer1"
     inkscape:label="circle"><path
       style="display:inline;fill:#f2f2f2;stroke:#000000;stroke-width:0.10641826;stroke-linecap:butt;stroke-linejoin:round;stroke-miterlimit:4;stroke-dasharray:none;stroke-dashoffset:0;stroke-opacity:1"
       d="M 112.94435,258.52498 C 58.835236,249.55773 16.114482,207.12281 6.5514407,152.84391 4.4573245,140.9579 5.0734893,116.42169 7.7649823,104.52121 14.143896,76.316445 31.911134,48.965313 55.555862,30.951174 95.996935,0.14046268 153.87465,-3.8748479 198.00861,21.068391 c 12.32208,6.964101 19.45309,12.46237 29.46121,22.715692 24.19414,24.786853 36.44339,54.494364 36.44745,88.394007 0.007,55.45774 -35.43069,103.86693 -88.96695,121.53338 -18.94812,6.25272 -42.3566,8.0699 -62.00597,4.81351 z"
       id="path3347"
       inkscape:connector-curvature="0" /></g><g
     id="g10"
     inkscape:groupmode="layer"
     inkscape:label="Kamloops_spec"
     transform="matrix(1.25,0,0,-1.25,-265.88163,980.40183)"
     style="display:inline"><path
       style="fill:#f2f2f2;stroke:#000000;stroke-width:0.07367759;stroke-linecap:butt;stroke-linejoin:round;stroke-miterlimit:4;stroke-dasharray:none;stroke-dashoffset:0;stroke-opacity:1"
       d="m 268.68095,658.62186 11.07082,12.57014 30.73568,-33.87898 85.48967,0 0,15.26647 -30.79756,23.11382 30.79756,21.55967 0,15.22215 -68.24143,0 0,-17.01685 30.45211,-0.41765 -29.61494,-20.14106 30.42839,-20.53946 -31.19843,0 -0.11097,-9.5321 -35.13202,40.47588 21.07629,27.04867 -22.13159,0.0643 -22.51263,-26.49526 -0.38517,26.55351 -16.85126,0 0,-75.1621 16.88448,0 z"
       id="path2991"
       inkscape:connector-curvature="0" /></g></svg>